<svg width="14" height="14" viewBox="0 0 14 14" fill="none" xmlns="http://www.w3.org/2000/svg">
<path d="M12.8333 11.2C13.4776 11.2 14 11.8268 14 12.6C14 13.3731 13.4776 14 12.8333 14C12.4827 14 1.51725 14 1.16667 14C0.522375 14 0 13.3731 0 12.6C0 11.8268 0.522375 11.2 1.16667 11.2C1.51725 11.2 12.4827 11.2 12.8333 11.2ZM12.8333 5.6C13.4776 5.6 14 6.22685 14 7C14 7.77315 13.4776 8.4 12.8333 8.4C12.4827 8.4 1.51725 8.4 1.16667 8.4C0.522375 8.4 0 7.77315 0 7C0 6.22685 0.522375 5.6 1.16667 5.6C1.51725 5.6 12.4827 5.6 12.8333 5.6ZM12.8333 0C13.4776 0 14 0.62685 14 1.4C14 2.17315 13.4776 2.8 12.8333 2.8C12.4827 2.8 1.51725 2.8 1.16667 2.8C0.522375 2.8 0 2.17315 0 1.4C0 0.62685 0.522375 0 1.16667 0C1.51725 0 12.4827 0 12.8333 0Z" fill="black"/>
</svg>
