<svg width="145" height="50" viewBox="0 0 145 50" fill="none" xmlns="http://www.w3.org/2000/svg">
<path d="M45.4785 34.5015C45.5389 34.6524 45.5756 34.8116 45.5874 34.9737C45.5903 35.3123 45.4599 35.6384 45.2243 35.8816C45.1087 36.0066 44.9681 36.1059 44.8117 36.1732C44.6553 36.2404 44.4866 36.2741 44.3163 36.272H41.9557C41.6937 36.2789 41.4373 36.1955 41.2293 36.036C41.0224 35.8868 40.8619 35.6822 40.7663 35.4458L36.8259 26.3301L34.3835 26.4391H26.8658L24.3781 26.3301L20.4376 35.473C20.3655 35.717 20.2074 35.9267 19.9927 36.0632C19.7742 36.2223 19.5094 36.3052 19.2391 36.2993H16.9058C16.5658 36.2902 16.2422 36.1517 16.0009 35.9121C15.7596 35.6725 15.6189 35.3498 15.6074 35.01C15.6192 34.8479 15.656 34.6887 15.7164 34.5379L18.876 26.0305L22.2989 17.2508L28.836 0.826221C28.9382 0.585755 29.1086 0.380556 29.3263 0.236063C29.5301 0.0884746 29.7739 0.00616434 30.0254 0L31.1149 0C31.3545 0.0106052 31.5854 0.0928372 31.7777 0.236063C31.9957 0.382671 32.1686 0.587002 32.2771 0.826221L38.8959 17.2508L42.3189 26.0123L45.4785 34.5015ZM33.294 17.2508L30.5702 9.88742L27.8464 17.2508L26.2393 21.4727H34.9555L33.294 17.2508Z" fill="black"/>
<path d="M75.7127 5.1843L75.8217 24.2509C75.7621 26.632 74.9834 28.9394 73.5882 30.8698C72.2585 32.6705 70.4805 34.0916 68.4311 34.9918C66.3399 35.9138 64.0795 36.39 61.7941 36.39C59.5086 36.39 57.2483 35.9138 55.1571 34.9918C53.0752 34.0736 51.2738 32.6199 49.9364 30.779C48.5334 28.8137 47.7493 26.4741 47.6848 24.0603L47.7392 5.1843L47.8391 1.18938C47.825 1.01765 47.8531 0.845073 47.9212 0.686776C47.9893 0.528479 48.0951 0.3893 48.2295 0.281446C48.4558 0.0990307 48.7378 -0.000308787 49.0285 -1.38115e-05H51.7523C51.9207 -0.0072834 52.0888 0.0213369 52.2453 0.0839494C52.4019 0.146562 52.5433 0.241736 52.6603 0.36316C52.7799 0.481473 52.8738 0.62314 52.9363 0.779342C52.9988 0.935544 53.0284 1.10294 53.0234 1.2711L53.1778 23.7788C53.1987 24.8103 53.4549 25.8234 53.927 26.7407C54.399 27.6581 55.0744 28.4555 55.9016 29.0721C57.5965 30.2979 59.6487 30.9298 61.7396 30.8698C63.8459 30.9198 65.9112 30.2823 67.623 29.0539C68.4408 28.4637 69.1119 27.6932 69.5842 26.8021C70.0565 25.911 70.3175 24.9231 70.3468 23.915L70.5012 1.21662C70.49 0.881669 70.6106 0.555691 70.8371 0.308684C70.9543 0.196036 71.0946 0.110113 71.2482 0.0568242C71.4018 0.00353542 71.5651 -0.0158551 71.7269 -1.38115e-05H74.4507C74.6217 -0.00761008 74.7922 0.0235627 74.9494 0.0911717C75.1066 0.158781 75.2465 0.261075 75.3586 0.390398C75.5628 0.607838 75.682 0.891392 75.6946 1.18938L75.7127 5.1843Z" fill="black"/>
<path d="M102.787 17.9408C101.947 19.6826 100.619 21.1429 98.965 22.1445L103.505 35.1643V35.4095C103.492 35.646 103.392 35.8695 103.224 36.037C103.057 36.2045 102.833 36.3044 102.597 36.3174H99.3372C99.1398 36.324 98.9465 36.2595 98.7924 36.1358C98.6386 36.0243 98.5217 35.8694 98.4565 35.6909L94.4253 23.8061L87.3161 23.8515V27.4378L87.1618 35.473C87.1618 35.7138 87.0661 35.9448 86.8959 36.115C86.7256 36.2853 86.4947 36.381 86.2539 36.381H83.1396C83.0225 36.384 82.9061 36.3621 82.7981 36.3167C82.6901 36.2713 82.5929 36.2035 82.5132 36.1177C82.429 36.0386 82.3621 35.9428 82.3168 35.8366C82.2715 35.7303 82.2487 35.6158 82.2499 35.5003L82.0955 27.465V8.9704L82.2499 0.907937C82.249 0.795126 82.272 0.683403 82.3173 0.580119C82.3627 0.476835 82.4295 0.384333 82.5132 0.3087C82.6857 0.156376 82.9096 0.0752459 83.1396 0.081716L92.682 1.83971e-06C94.747 -0.0301471 96.7779 0.527186 98.5382 1.60705C100.25 2.66612 101.651 4.1606 102.597 5.9379C103.594 7.79236 104.103 9.87012 104.077 11.9757C104.116 14.0372 103.675 16.0797 102.787 17.9408ZM96.9312 16.5971C98.0186 15.3076 98.591 13.6616 98.5382 11.9757C98.5827 10.2725 98.0012 8.61219 96.9039 7.30888C96.3921 6.68963 95.7459 6.19523 95.0143 5.86327C94.2827 5.5313 93.4851 5.37052 92.682 5.39314H87.2344V8.9704V18.5673L92.682 18.4583C93.4848 18.4884 94.2839 18.3366 95.0197 18.0143C95.7555 17.6919 96.409 17.2075 96.9312 16.5971Z" fill="black"/>
<path d="M138.723 34.5015C138.784 34.6524 138.821 34.8116 138.832 34.9737C138.835 35.3123 138.705 35.6384 138.469 35.8816C138.354 36.0066 138.213 36.1059 138.057 36.1732C137.9 36.2404 137.732 36.2741 137.561 36.272H135.228C134.966 36.2804 134.709 36.1969 134.502 36.036C134.295 35.8868 134.134 35.6822 134.039 35.4458L130.062 26.3301L127.628 26.4391H120.111L117.623 26.3301L113.683 35.5094C113.61 35.7534 113.452 35.963 113.238 36.0995C113.019 36.2586 112.754 36.3415 112.484 36.3356H110.151C109.811 36.3265 109.487 36.188 109.246 35.9484C109.005 35.7088 108.864 35.3862 108.852 35.0463C108.853 34.8603 108.887 34.6758 108.952 34.5015L112.112 25.9942L115.544 17.2508L122.081 0.826221C122.183 0.585755 122.354 0.380556 122.571 0.236063C122.775 0.0884746 123.019 0.00616434 123.27 0L124.387 0C124.639 0.00320494 124.884 0.0858091 125.086 0.236063C125.304 0.382671 125.477 0.587002 125.586 0.826221L132.141 17.2508L135.564 26.0123L138.723 34.5015ZM126.539 17.2508L123.815 9.88742L121.091 17.2508L119.43 21.4545H128.146L126.539 17.2508Z" fill="black"/>
<path d="M143.726 43.0089C143.476 42.789 143.151 42.675 142.818 42.6911L120.202 42.7728V49.2646L142.818 49.1193C142.978 49.1205 143.137 49.0899 143.285 49.0291C143.433 48.9684 143.568 48.8789 143.681 48.7656C143.794 48.6524 143.884 48.5178 143.945 48.3697C144.005 48.2215 144.036 48.0628 144.035 47.9027V43.8351C144.045 43.6834 144.023 43.5312 143.969 43.3888C143.916 43.2463 143.833 43.1168 143.726 43.0089Z" fill="black"/>
<path d="M25.3223 43.0817L7.00018 43.1452L7.13637 37.6976V12.2754L6.92755 1.21677C6.92875 1.05667 6.89811 0.897917 6.8374 0.749763C6.77668 0.601608 6.68711 0.467007 6.5739 0.353791C6.46068 0.240574 6.32608 0.151003 6.17792 0.0902898C6.02977 0.0295762 5.87102 -0.00106787 5.71091 0.000140536H1.42546C1.26655 -0.00233089 1.10882 0.0278176 0.962025 0.0887222C0.815229 0.149627 0.682485 0.239993 0.571999 0.354235C0.450769 0.470918 0.356322 0.612534 0.295185 0.769294C0.234049 0.926055 0.207681 1.09422 0.217904 1.26217L0 12.2845V37.7067L0.217904 48.7835C0.21377 48.9426 0.24316 49.1009 0.304164 49.2479C0.365169 49.3949 0.456423 49.5275 0.571999 49.637C0.682485 49.7512 0.815229 49.8416 0.962025 49.9025C1.10882 49.9634 1.26655 49.9935 1.42546 49.9911L25.3223 49.8458V43.0817Z" fill="black"/>
<path d="M31.4781 49.3281V43.018H32.7855C33.4802 42.9853 34.1757 43.0619 34.8466 43.245C35.4519 43.4346 35.9721 43.8295 36.3174 44.3617C36.6736 44.9259 36.8538 45.5833 36.8349 46.2502C36.8477 46.8333 36.7068 47.4095 36.4264 47.9208C36.1785 48.3942 35.7921 48.7807 35.3187 49.0285C34.7484 49.2829 34.1267 49.401 33.5028 49.3735L31.4781 49.3281ZM32.0864 48.7289H32.8128C33.4227 48.7564 34.0335 48.7014 34.6287 48.5655C35.0863 48.4246 35.481 48.1294 35.7454 47.7302C36.0197 47.3059 36.1619 46.8098 36.154 46.3047C36.1706 45.752 36.0186 45.2073 35.7182 44.743C35.4266 44.3042 34.9892 43.9826 34.4834 43.8351C33.8441 43.6852 33.1873 43.6241 32.5313 43.6535H32.0864V48.7289Z" fill="black"/>
<path d="M38.1333 42.7365C38.1992 42.7341 38.265 42.7458 38.326 42.7709C38.3871 42.7959 38.4421 42.8337 38.4874 42.8818C38.5345 42.9277 38.5717 42.9829 38.5967 43.0438C38.6217 43.1047 38.6339 43.1701 38.6326 43.2359C38.6338 43.3003 38.6214 43.3643 38.5964 43.4237C38.5714 43.4831 38.5343 43.5367 38.4874 43.5809C38.4421 43.629 38.3871 43.6668 38.326 43.6918C38.265 43.7169 38.1992 43.7286 38.1333 43.7262C38.0689 43.7268 38.0051 43.7142 37.9458 43.6892C37.8864 43.6642 37.8328 43.6274 37.7883 43.5809C37.6969 43.4891 37.6449 43.3654 37.643 43.2359C37.6444 43.1036 37.6964 42.9769 37.7883 42.8818C37.8328 42.8353 37.8864 42.7985 37.9458 42.7735C38.0051 42.7485 38.0689 42.7359 38.1333 42.7365ZM37.8427 44.6613H38.442V49.3281H37.8427V44.6613Z" fill="black"/>
<path d="M42.0283 45.1698L41.6379 45.5693C41.4082 45.2998 41.0825 45.1305 40.73 45.0971C40.6377 45.0958 40.546 45.1128 40.4603 45.1471C40.3746 45.1814 40.2965 45.2323 40.2306 45.2969C40.1659 45.3517 40.1137 45.4198 40.0777 45.4966C40.0417 45.5733 40.0226 45.657 40.0218 45.7418C40.0274 45.9026 40.0884 46.0565 40.1943 46.1776C40.4038 46.3847 40.6502 46.551 40.9206 46.6679C41.268 46.824 41.5777 47.0532 41.8286 47.3397C41.9869 47.5518 42.07 47.8106 42.0646 48.0752C42.0606 48.2554 42.0199 48.4328 41.945 48.5967C41.87 48.7607 41.7625 48.9076 41.6288 49.0285C41.4945 49.1595 41.3354 49.2623 41.1607 49.331C40.9861 49.3996 40.7995 49.4325 40.6119 49.428C40.3478 49.4303 40.0867 49.3712 39.8493 49.2555C39.6095 49.1443 39.4006 48.9759 39.241 48.7652L39.6132 48.3385C39.7296 48.4904 39.8775 48.6153 40.0468 48.7047C40.2161 48.794 40.4027 48.8456 40.5938 48.856C40.8176 48.8579 41.0342 48.7771 41.2021 48.629C41.2818 48.5624 41.346 48.4791 41.3899 48.3849C41.4338 48.2908 41.4565 48.1881 41.4563 48.0842C41.458 47.9155 41.4002 47.7515 41.2929 47.6212C41.0713 47.4139 40.8166 47.2452 40.5393 47.1218C40.2058 46.9766 39.9106 46.7559 39.6768 46.4772C39.5084 46.2355 39.4298 45.9426 39.4547 45.6491C39.4795 45.3556 39.6063 45.08 39.813 44.8702C39.9327 44.7531 40.0748 44.6613 40.2308 44.6005C40.3868 44.5396 40.5535 44.5109 40.7209 44.5161C41.2257 44.5536 41.6954 44.7884 42.0283 45.1698Z" fill="black"/>
<path d="M47.022 47.7755L47.5304 48.0479C47.3788 48.3397 47.1827 48.6062 46.9493 48.8378C46.7341 49.033 46.4848 49.1868 46.2139 49.2918C45.9225 49.3956 45.6153 49.4479 45.306 49.4461C44.9665 49.4692 44.6263 49.414 44.3115 49.285C43.9967 49.1559 43.7157 48.9563 43.4901 48.7016C43.0735 48.2344 42.844 47.6298 42.8455 47.0038C42.8395 46.4301 43.0319 45.872 43.3902 45.424C43.6002 45.1405 43.874 44.9105 44.1895 44.7528C44.5051 44.595 44.8533 44.5139 45.2061 44.5161C45.573 44.5061 45.9371 44.5832 46.2685 44.741C46.5999 44.8988 46.8892 45.1328 47.1128 45.424C47.4594 45.8836 47.6417 46.4464 47.6303 47.022H43.481C43.4707 47.5177 43.6567 47.9974 43.9985 48.3566C44.1586 48.5245 44.3518 48.6572 44.566 48.7463C44.7802 48.8354 45.0105 48.879 45.2424 48.8741C45.4785 48.877 45.7129 48.8339 45.9325 48.747C46.1439 48.6732 46.3406 48.5626 46.5135 48.4202C46.7146 48.2322 46.886 48.0149 47.022 47.7755ZM47.022 46.5226C46.9596 46.2433 46.8389 45.9803 46.6679 45.7508C46.5036 45.5516 46.2954 45.3931 46.0596 45.2878C45.8126 45.1717 45.5426 45.1127 45.2697 45.1153C44.8351 45.105 44.4129 45.2608 44.0893 45.5511C43.816 45.8142 43.6265 46.1522 43.5446 46.5226H47.022Z" fill="black"/>
<path d="M48.8015 44.6613H49.4008V45.4966C49.6132 45.2036 49.8856 44.9591 50.1997 44.7794C50.4907 44.616 50.8194 44.5315 51.1531 44.5342C51.4762 44.5317 51.7926 44.6266 52.061 44.8066C52.3301 44.978 52.5394 45.2286 52.6603 45.5239C52.8107 45.9739 52.8753 46.4482 52.8509 46.9221V49.3281H52.2517V47.1037C52.266 46.7423 52.2447 46.3804 52.1881 46.0232C52.1403 45.7508 51.999 45.5036 51.7886 45.3241C51.5654 45.1606 51.2934 45.0774 51.0169 45.0881C50.6574 45.0898 50.3102 45.2184 50.0363 45.4512C49.7573 45.6867 49.5602 46.0046 49.4734 46.3592C49.3962 46.7782 49.3657 47.2045 49.3826 47.6303V49.3463H48.7834L48.8015 44.6613ZM52.0883 42.9181L52.3879 43.3357C52.2287 43.4595 52.0549 43.5632 51.8703 43.6444C51.7237 43.692 51.5706 43.7165 51.4164 43.7171C51.1958 43.7125 50.9789 43.6598 50.7808 43.5627L50.4267 43.3993C50.3514 43.3898 50.2751 43.3898 50.1997 43.3993C50.1033 43.3988 50.0076 43.4173 49.9183 43.4538C49.781 43.5201 49.6503 43.5991 49.5279 43.6898L49.2464 43.254C49.3667 43.1185 49.5152 43.0109 49.6814 42.9388C49.8477 42.8666 50.0277 42.8317 50.2088 42.8364C50.4359 42.8509 50.6579 42.9095 50.8625 43.0089C51.0416 43.1074 51.2398 43.1662 51.4436 43.1814C51.6776 43.1506 51.8996 43.0599 52.0883 42.9181Z" fill="black"/>
<path d="M58.807 44.6613V49.3281H58.2168V48.52C57.9895 48.8117 57.7014 49.0503 57.3724 49.2192C56.9237 49.4304 56.4204 49.4967 55.9323 49.4089C55.4441 49.321 54.9955 49.0833 54.6486 48.7289C54.4213 48.498 54.2424 48.2241 54.1223 47.9232C54.0023 47.6223 53.9435 47.3005 53.9495 46.9766C53.9448 46.6561 54.0051 46.3379 54.1268 46.0414C54.2485 45.7449 54.4291 45.4762 54.6577 45.2515C54.8786 45.0222 55.1438 44.8404 55.4373 44.717C55.7308 44.5937 56.0463 44.5315 56.3646 44.5342C56.7246 44.5292 57.0802 44.6134 57.3997 44.7794C57.7254 44.9579 58.0051 45.2096 58.2168 45.5148V44.6613H58.807ZM56.41 45.1153C56.0911 45.1159 55.778 45.2004 55.5021 45.3604C55.2189 45.5283 54.9867 45.7699 54.8302 46.0595C54.667 46.3345 54.5793 46.6477 54.576 46.9675C54.5793 47.2872 54.667 47.6004 54.8302 47.8754C54.9913 48.1646 55.2263 48.4059 55.5112 48.5745C55.7843 48.7419 56.0987 48.83 56.4191 48.8287C56.738 48.8282 57.0512 48.7436 57.327 48.5836C57.6125 48.4279 57.8485 48.1951 58.008 47.9117C58.1697 47.6172 58.2511 47.2853 58.2441 46.9493C58.2514 46.7 58.2085 46.4518 58.1181 46.2195C58.0276 45.9871 57.8914 45.7752 57.7174 45.5965C57.5419 45.4342 57.3361 45.3081 57.1117 45.2255C56.8874 45.1429 56.6489 45.1055 56.41 45.1153Z" fill="black"/>
<path d="M64.8175 42.8546V49.3281H64.2273V48.5201C63.998 48.8098 63.7104 49.048 63.383 49.2192C62.9343 49.4304 62.4309 49.4967 61.9428 49.4089C61.4547 49.321 61.006 49.0834 60.6592 48.7289C60.4253 48.5011 60.2396 48.2285 60.1133 47.9275C59.987 47.6265 59.9225 47.3031 59.9237 46.9766C59.919 46.6561 59.9793 46.338 60.101 46.0415C60.2227 45.7449 60.4033 45.4762 60.6319 45.2515C60.8528 45.0222 61.118 44.8404 61.4115 44.7171C61.705 44.5937 62.0205 44.5315 62.3388 44.5342C62.6988 44.5292 63.0544 44.6134 63.3739 44.7794C63.6996 44.9579 63.9793 45.2097 64.191 45.5148V42.8546H64.8175ZM62.4206 45.1153C62.1016 45.1159 61.7885 45.2004 61.5126 45.3605C61.2294 45.5283 60.9972 45.7699 60.8407 46.0596C60.6775 46.3345 60.5898 46.6477 60.5865 46.9675C60.5898 47.2872 60.6775 47.6005 60.8407 47.8754C60.9997 48.1662 61.2352 48.408 61.5217 48.5745C61.7949 48.742 62.1093 48.83 62.4296 48.8288C62.7479 48.8238 63.06 48.7395 63.3376 48.5836C63.6172 48.4233 63.8491 48.1914 64.0094 47.9118C64.1712 47.6172 64.2526 47.2853 64.2455 46.9493C64.2528 46.7001 64.21 46.4519 64.1195 46.2195C64.0291 45.9871 63.8928 45.7752 63.7189 45.5965C63.3667 45.2709 62.8999 45.0979 62.4206 45.1153Z" fill="black"/>
<path d="M68.3948 44.5342C68.7362 44.5229 69.076 44.587 69.3898 44.722C69.7037 44.857 69.984 45.0594 70.2106 45.3151C70.6181 45.7818 70.8352 46.3845 70.819 47.0038C70.8268 47.6405 70.5819 48.2543 70.138 48.7107C69.9083 48.9432 69.6347 49.1279 69.3332 49.2538C69.0316 49.3798 68.708 49.4447 68.3812 49.4447C68.0543 49.4447 67.7307 49.3798 67.4291 49.2538C67.1276 49.1279 66.854 48.9432 66.6243 48.7107C66.1987 48.2495 65.9624 47.645 65.9624 47.0174C65.9624 46.3899 66.1987 45.7853 66.6243 45.3241C66.8444 45.0719 67.1168 44.8705 67.4225 44.7341C67.7282 44.5977 68.06 44.5295 68.3948 44.5342ZM68.3948 45.1244C68.1547 45.1231 67.9169 45.1716 67.6965 45.2669C67.4762 45.3623 67.278 45.5023 67.1146 45.6782C66.9363 45.8528 66.796 46.0622 66.7023 46.2934C66.6085 46.5246 66.5635 46.7726 66.5698 47.022C66.5752 47.3402 66.6594 47.6522 66.815 47.9299C66.9728 48.2084 67.2015 48.4402 67.4778 48.6018C67.7557 48.7556 68.068 48.8368 68.3857 48.8378C68.7072 48.8407 69.0237 48.7582 69.3029 48.5987C69.582 48.4391 69.8138 48.2084 69.9746 47.9299C70.1261 47.6506 70.2101 47.3396 70.2197 47.022C70.2261 46.7726 70.181 46.5246 70.0873 46.2934C69.9936 46.0622 69.8532 45.8528 69.675 45.6782C69.5075 45.505 69.3073 45.3668 69.086 45.2717C68.8646 45.1767 68.6266 45.1266 68.3857 45.1244H68.3948Z" fill="black"/>
<path d="M71.7269 44.6613H72.3352V45.3423C72.4908 45.1062 72.6876 44.9002 72.9163 44.734C73.1054 44.6095 73.3255 44.5404 73.5518 44.5342C73.7417 44.5402 73.9266 44.5966 74.0875 44.6976L73.7697 45.2061C73.6708 45.1566 73.5625 45.1288 73.452 45.1244C73.237 45.1303 73.0325 45.218 72.88 45.3695C72.6668 45.577 72.5186 45.842 72.4532 46.1322C72.3549 46.665 72.3153 47.2069 72.3352 47.7483V49.3281H71.7269V44.6613Z" fill="black"/>
<path d="M79.2264 44.6613V49.3281H78.6363V48.52C78.407 48.8097 78.1193 49.0479 77.7919 49.2192C77.3432 49.4304 76.8398 49.4967 76.3517 49.4089C75.8636 49.321 75.415 49.0833 75.0681 48.7289C74.8408 48.498 74.6619 48.2241 74.5418 47.9232C74.4217 47.6223 74.363 47.3005 74.369 46.9766C74.3642 46.6561 74.4245 46.3379 74.5463 46.0414C74.668 45.7449 74.8486 45.4762 75.0772 45.2515C75.2974 45.0214 75.5625 44.8389 75.8561 44.7155C76.1498 44.5922 76.4656 44.5304 76.7841 44.5342C77.1441 44.5292 77.4997 44.6134 77.8191 44.7794C78.1448 44.9579 78.4246 45.2096 78.6363 45.5148V44.6613H79.2264ZM76.8295 45.1153C76.5106 45.1159 76.1974 45.2004 75.9216 45.3604C75.6384 45.5283 75.4061 45.7699 75.2497 46.0595C75.0865 46.3345 74.9988 46.6477 74.9955 46.9675C74.9988 47.2872 75.0865 47.6004 75.2497 47.8754C75.4055 48.1685 75.6417 48.4111 75.9306 48.5745C76.2036 48.7424 76.5181 48.8304 76.8386 48.8287C77.1572 48.8257 77.4697 48.7413 77.7465 48.5836C78.032 48.4279 78.268 48.1951 78.4275 47.9117C78.5892 47.6172 78.6706 47.2853 78.6635 46.9493C78.6709 46.7 78.628 46.4518 78.5375 46.2195C78.4471 45.9871 78.3108 45.7752 78.1369 45.5965C77.9614 45.4342 77.7556 45.3081 77.5312 45.2255C77.3068 45.1429 77.0684 45.1055 76.8295 45.1153Z" fill="black"/>
<path d="M89.2047 44.0712L88.7144 44.5342C88.3813 44.201 87.9866 43.9358 87.5522 43.7534C87.1669 43.5788 86.7495 43.4861 86.3265 43.481C85.8346 43.484 85.3511 43.6088 84.9192 43.8442C84.4888 44.0745 84.1281 44.4163 83.8751 44.8338C83.6431 45.2367 83.5239 45.6946 83.5301 46.1594C83.5302 46.6381 83.6656 47.107 83.9205 47.5122C84.1735 47.9376 84.5376 48.286 84.9737 48.52C85.4247 48.7651 85.9312 48.8902 86.4445 48.8832C87.0422 48.9009 87.627 48.7081 88.097 48.3385C88.5359 47.9831 88.8219 47.4729 88.896 46.913H86.8531V46.3047H89.5769C89.5882 46.7331 89.5136 47.1594 89.3577 47.5585C89.2018 47.9577 88.9676 48.3217 88.669 48.629C88.3626 48.9203 88.0002 49.1463 87.6037 49.293C87.2072 49.4397 86.785 49.5042 86.3628 49.4825C85.8489 49.4997 85.3375 49.4019 84.8663 49.1961C84.395 48.9903 83.9757 48.6818 83.639 48.2931C83.1245 47.706 82.8463 46.949 82.8582 46.1685C82.8495 45.5796 83 44.9992 83.294 44.4888C83.5881 43.9815 84.015 43.564 84.5288 43.2813C85.0857 42.9802 85.7117 42.83 86.3447 42.8454C86.8611 42.8435 87.3731 42.9422 87.8518 43.136C88.3559 43.3627 88.8144 43.6797 89.2047 44.0712Z" fill="black"/>
<path d="M90.4485 44.6613H91.0659V45.3423C91.2163 45.1022 91.414 44.8952 91.647 44.734C91.8322 44.6085 92.0498 44.5391 92.2735 44.5342C92.4634 44.5402 92.6482 44.5966 92.8092 44.6976L92.5005 45.2061C92.4004 45.1598 92.2927 45.1321 92.1827 45.1244C91.9659 45.134 91.7598 45.221 91.6016 45.3695C91.3884 45.577 91.2402 45.842 91.1749 46.1322C91.0811 46.6655 91.0446 47.2073 91.0659 47.7483V49.3281H90.4485V44.6613Z" fill="black"/>
<path d="M97.9662 44.6613V49.3281H97.3761V48.5201C97.1488 48.8117 96.8606 49.0503 96.5317 49.2192C96.083 49.4304 95.5796 49.4967 95.0915 49.4089C94.6034 49.321 94.1548 49.0833 93.8079 48.7289C93.5806 48.498 93.4016 48.2241 93.2816 47.9232C93.1615 47.6223 93.1028 47.3005 93.1088 46.9766C93.104 46.6561 93.1643 46.3379 93.286 46.0414C93.4078 45.7449 93.5884 45.4762 93.817 45.2515C94.0378 45.0222 94.3031 44.8404 94.5965 44.7171C94.89 44.5937 95.2056 44.5315 95.5239 44.5342C95.8838 44.5292 96.2395 44.6134 96.5589 44.7794C96.8846 44.9579 97.1643 45.2097 97.3761 45.5148V44.6613H97.9662ZM95.5693 45.1153C95.2504 45.1159 94.9372 45.2004 94.6613 45.3604C94.3782 45.5283 94.1459 45.7699 93.9895 46.0596C93.8263 46.3345 93.7386 46.6477 93.7352 46.9675C93.7438 47.2865 93.8311 47.5984 93.9895 47.8754C94.1506 48.1646 94.3856 48.4059 94.6704 48.5745C94.9436 48.7419 95.258 48.83 95.5783 48.8288C95.8967 48.8237 96.2087 48.7395 96.4863 48.5836C96.7659 48.4233 96.9978 48.1914 97.1582 47.9117C97.3227 47.6179 97.4072 47.2861 97.4033 46.9493C97.4089 46.6995 97.3644 46.451 97.2724 46.2187C97.1804 45.9863 97.0428 45.7748 96.8676 45.5965C96.5154 45.2709 96.0486 45.0979 95.5693 45.1153ZM95.9415 42.4732H96.8495L95.5874 43.7897H94.9973L95.9415 42.4732Z" fill="black"/>
<path d="M101.244 42.8545V43.4447C101.067 43.3615 100.876 43.3122 100.681 43.2994C100.579 43.2965 100.479 43.3216 100.39 43.3721C100.321 43.4066 100.267 43.4645 100.236 43.5355C100.22 43.6985 100.22 43.8627 100.236 44.0258V44.6613H101.208V45.1789H100.236V49.3281H99.6368V45.1789H98.965V44.6613H99.5823V43.9259C99.5677 43.6833 99.5985 43.44 99.6731 43.2086C99.7397 43.0657 99.8471 42.9456 99.9818 42.8636C100.147 42.7768 100.331 42.7331 100.518 42.7365C100.764 42.7396 101.009 42.7794 101.244 42.8545Z" fill="black"/>
<path d="M102.288 42.7365C102.354 42.7352 102.419 42.7474 102.48 42.7724C102.541 42.7974 102.596 42.8346 102.642 42.8818C102.734 42.9769 102.786 43.1036 102.787 43.2359C102.786 43.3654 102.733 43.4891 102.642 43.5809C102.596 43.628 102.541 43.6653 102.48 43.6902C102.419 43.7152 102.354 43.7275 102.288 43.7262C102.159 43.7238 102.035 43.6714 101.944 43.58C101.852 43.4885 101.8 43.3652 101.798 43.2359C101.796 43.1701 101.809 43.1047 101.834 43.0438C101.859 42.9829 101.896 42.9277 101.943 42.8818C101.987 42.8349 102.041 42.7977 102.1 42.7727C102.16 42.7477 102.224 42.7354 102.288 42.7365ZM101.988 44.6613H102.597V49.3281H101.997L101.988 44.6613Z" fill="black"/>
<path d="M108.371 45.6328L107.899 45.9234C107.705 45.6605 107.45 45.4487 107.156 45.3064C106.861 45.164 106.537 45.0953 106.21 45.1062C105.95 45.0974 105.69 45.141 105.447 45.2346C105.203 45.3282 104.981 45.4698 104.794 45.651C104.614 45.8229 104.47 46.0302 104.374 46.2598C104.277 46.4894 104.228 46.7365 104.231 46.9857C104.231 47.3242 104.322 47.6565 104.494 47.9481C104.663 48.2408 104.908 48.4824 105.202 48.6472C105.652 48.8862 106.17 48.9599 106.668 48.8554C107.166 48.7508 107.611 48.4747 107.926 48.0752L108.398 48.3839C108.171 48.7207 107.858 48.9904 107.49 49.1647C107.089 49.3597 106.647 49.4562 106.201 49.4462C105.528 49.4602 104.876 49.2091 104.385 48.7471C104.152 48.5269 103.967 48.2608 103.842 47.9654C103.717 47.67 103.655 47.3518 103.659 47.0311C103.654 46.587 103.771 46.15 103.996 45.7675C104.222 45.385 104.548 45.0715 104.939 44.8611C105.349 44.6399 105.808 44.5273 106.274 44.5342C106.582 44.534 106.889 44.583 107.182 44.6795C107.447 44.759 107.696 44.885 107.917 45.0518C108.106 45.2132 108.26 45.4108 108.371 45.6328Z" fill="black"/>
<path d="M114.173 44.6613V49.3281H113.583V48.52C113.353 48.8097 113.066 49.0479 112.738 49.2192C112.29 49.4304 111.786 49.4967 111.298 49.4089C110.81 49.321 110.361 49.0833 110.015 48.7289C109.787 48.498 109.608 48.2241 109.488 47.9232C109.368 47.6223 109.309 47.3005 109.315 46.9766C109.311 46.6561 109.371 46.3379 109.493 46.0414C109.614 45.7449 109.795 45.4762 110.024 45.2515C110.244 45.0214 110.509 44.8389 110.803 44.7155C111.096 44.5922 111.412 44.5304 111.731 44.5342C112.09 44.5292 112.446 44.6134 112.766 44.7794C113.091 44.9579 113.371 45.2096 113.583 45.5148V44.6613H114.173ZM111.776 45.1153C111.457 45.1159 111.144 45.2004 110.868 45.3604C110.585 45.5283 110.353 45.7699 110.196 46.0595C110.033 46.3345 109.945 46.6477 109.942 46.9675C109.945 47.2872 110.033 47.6004 110.196 47.8754C110.352 48.1637 110.582 48.4045 110.864 48.5723C111.145 48.7401 111.467 48.8287 111.794 48.8287C112.113 48.8282 112.426 48.7436 112.702 48.5836C112.988 48.4279 113.223 48.1951 113.383 47.9117C113.545 47.6172 113.626 47.2853 113.619 46.9493C113.626 46.7 113.584 46.4518 113.493 46.2195C113.403 45.9871 113.266 45.7752 113.092 45.5965C112.916 45.4331 112.708 45.3064 112.482 45.2237C112.256 45.1411 112.016 45.1043 111.776 45.1153Z" fill="black"/>
</svg>
